<svg xmlns="http://www.w3.org/2000/svg" viewBox="0 0 80 80" fill="none">
  <!-- Child figure -->
  <circle cx="40" cy="16" r="8" fill="#4CAF93"/>
  <!-- Body -->
  <path d="M40 24 L40 44" stroke="#4CAF93" stroke-width="3.5" stroke-linecap="round"/>
  <!-- Arms raised (playful) -->
  <path d="M28 30 L40 32 L52 28" stroke="#4CAF93" stroke-width="3" stroke-linecap="round" stroke-linejoin="round" fill="none"/>
  <!-- Legs -->
  <path d="M40 44 L32 62" stroke="#4CAF93" stroke-width="3" stroke-linecap="round"/>
  <path d="M40 44 L48 62" stroke="#4CAF93" stroke-width="3" stroke-linecap="round"/>
  <!-- Caring hands around child -->
  <path d="M16 22 Q12 32 16 44 Q20 52 26 52" stroke="#4CAF93" stroke-width="2" stroke-linecap="round" fill="none" opacity="0.4"/>
  <path d="M64 22 Q68 32 64 44 Q60 52 54 52" stroke="#4CAF93" stroke-width="2" stroke-linecap="round" fill="none" opacity="0.4"/>
  <!-- Heart -->
  <path d="M36 48 Q34 44 36 42 Q38 40 40 43 Q42 40 44 42 Q46 44 44 48 L40 52 Z" fill="#4CAF93" opacity="0.4"/>
  <!-- Small star/sparkle -->
  <circle cx="56" cy="16" r="2" fill="#4CAF93" opacity="0.4"/>
  <circle cx="24" cy="18" r="1.5" fill="#4CAF93" opacity="0.3"/>
</svg>
