<svg xmlns="http://www.w3.org/2000/svg" viewBox="0 0 80 80" fill="none">
  <!-- Knee joint -->
  <!-- Upper leg bone -->
  <rect x="32" y="6" width="14" height="28" rx="6" fill="#4CAF93" opacity="0.8"/>
  <!-- Lower leg bone -->
  <rect x="34" y="44" width="14" height="28" rx="6" fill="#4CAF93" opacity="0.8" transform="rotate(-8 40 58)"/>
  <!-- Joint connection -->
  <circle cx="40" cy="38" r="12" fill="#4CAF93" opacity="0.15"/>
  <circle cx="40" cy="38" r="8" fill="#4CAF93" opacity="0.3"/>
  <circle cx="40" cy="38" r="4" fill="#4CAF93"/>
  <!-- Bandage/support wrap -->
  <path d="M26 32 Q33 28 40 30 Q47 28 54 32" stroke="#3D9B83" stroke-width="2" stroke-linecap="round" fill="none"/>
  <path d="M26 38 Q33 42 40 40 Q47 42 54 38" stroke="#3D9B83" stroke-width="2" stroke-linecap="round" fill="none"/>
  <path d="M26 44 Q33 40 40 42 Q47 40 54 44" stroke="#3D9B83" stroke-width="2" stroke-linecap="round" fill="none"/>
  <!-- Recovery arrow -->
  <path d="M60 20 Q66 30 60 40" stroke="#4CAF93" stroke-width="2" stroke-linecap="round" fill="none"/>
  <polyline points="57,37 60,41 64,38" stroke="#4CAF93" stroke-width="2" stroke-linecap="round" stroke-linejoin="round" fill="none"/>
</svg>
